Coordinates
version=1
nRows=29
nColumns=24
inDegrees=yes

Units are S.I. units (second, meters, Newtons, ...)
Angles are in degrees.

endheader
time	pelvis_tilt	pelvis_list	pelvis_rotation	pelvis_tx	pelvis_ty	pelvis_tz	hip_flexion_r	hip_adduction_r	hip_rotation_r	knee_angle_r	ankle_angle_r	subtalar_angle_r	mtp_angle_r	hip_flexion_l	hip_adduction_l	hip_rotation_l	knee_angle_l	ankle_angle_l	subtalar_angle_l	mtp_angle_l	lumbar_extension	lumbar_bending	lumbar_rotation
      3.75000000	     -8.99914273	     -4.37797832	     12.30933359	     -1.31525665	     -0.05053152	      0.64840251	     36.99731139	     -2.54095750	    -20.40276768	    -12.52774323	     -2.57252532	      3.48448379	      3.25036313	     -8.42786204	     -3.48927122	      7.30269912	    -12.19377343	     15.49061312	      8.97749567	     11.16762169	      4.39608794	      2.41619432	    -15.53915272
      3.75500000	     -9.01236457	     -4.72911051	     12.35201783	     -1.30763935	     -0.05187276	      0.64865492	     37.06379498	     -2.13668215	    -20.29342472	    -12.97015642	     -3.11904224	      3.29801255	      2.93846367	     -8.53246524	     -4.01133125	      7.05717733	    -12.79193996	     15.47232138	      9.47303565	     11.69107496	      4.53325537	      2.84282795	    -15.48779958
      3.76000000	     -9.02383707	     -5.04989334	     12.29617262	     -1.29999188	     -0.05319647	      0.64905818	     37.18274497	     -1.71546575	    -20.12657265	    -13.54812131	     -3.87950011	      2.85631361	      2.99780374	     -8.65275745	     -4.49278719	      6.72752424	    -13.40549830	     15.38880605	      9.96856837	     12.17389255	      4.65528434	      3.24639173	    -15.33902289
      3.76500000	     -9.05228381	     -5.40186445	     12.24402113	     -1.29231020	     -0.05446629	      0.64940789	     37.33325642	     -1.29245702	    -19.91681143	    -14.20090398	     -4.77058586	      2.30467170	      3.20521859	     -8.71273899	     -4.99603933	      6.43498012	    -14.09206869	     15.24479762	     10.42335436	     12.63846532	      4.80980824	      3.68885727	    -15.17568952
      3.77000000	     -9.08437245	     -5.76954693	     12.15391419	     -1.28459721	     -0.05567395	      0.64977861	     37.52151049	     -0.85327843	    -19.65569955	    -14.96030234	     -5.73447747	      1.64739832	      3.40187822	     -8.74209924	     -5.50891097	      6.10205158	    -14.83301968	     15.02864243	     10.88211905	     13.14923661	      4.97233958	      4.15582430	    -14.95782463
      3.77500000	     -9.12147739	     -6.15026259	     12.03314116	     -1.27687535	     -0.05680487	      0.65017336	     37.74857801	     -0.40256011	    -19.36244606	    -15.82351931	     -6.70140712	      0.90739681	      3.47731431	     -8.72727219	     -6.02827339	      5.75654216	    -15.65016669	     14.72713245	     11.33593565	     13.70873288	      5.14129489	      4.64461450	    -14.71615531
      3.78000000	     -9.16287489	     -6.54289142	     11.87330660	     -1.26913689	     -0.05785338	      0.65059460	     38.01307431	      0.06533322	    -19.02486601	    -16.78736794	     -7.61249043	      0.10013481	      3.41758338	     -8.67089134	     -6.55566117	      5.35859731	    -16.53899238	     14.33097804	     11.81690086	     14.36028594	      5.31504285	      5.15302563	    -14.41930435
      3.78500000	     -9.20463749	     -6.93671930	     11.67621320	     -1.26140455	     -0.05882436	      0.65104062	     38.30945196	      0.54294197	    -18.64944524	    -17.85023424	     -8.40770855	     -0.74865201	      3.21535268	     -8.57292010	     -7.08295896	      4.90289178	    -17.50637800	     13.83917888	     12.33914001	     15.14547842	      5.48346959	      5.67303357	    -14.07301095
      3.79000000	     -9.25451273	     -7.32926695	     11.44994654	     -1.25366310	     -0.05968609	      0.65152229	     38.62305954	      1.03033305	    -18.25810150	    -18.96736010	     -9.05994522	     -1.59944133	      2.87112502	     -8.41514063	     -7.61008375	      4.40408498	    -18.56877847	     13.19817397	     12.89582586	     16.05035693	      5.65700513	      6.19137307	    -13.69926818
      3.79500000	     -9.31154604	     -7.71646088	     11.18933337	     -1.24592649	     -0.06046419	      0.65203041	     38.95311090	      1.52660871	    -17.86307891	    -20.13752716	     -9.54777368	     -2.41367062	      2.42941912	     -8.20120759	     -8.13299696	      3.86509364	    -19.72412818	     12.43963414	     13.48608506	     17.08214582	      5.82962711	      6.70742561	    -13.29613202
      3.80000000	     -9.40169135	     -8.14833222	     10.90345326	     -1.23815122	     -0.06118674	      0.65250655	     39.30031615	      2.06926953	    -17.48363441	    -21.28756264	     -9.89405759	     -3.14912317	      2.02785727	     -7.89606329	     -8.69176356	      3.37466201	    -20.98612827	     11.59150366	     14.05172369	     18.07754313	      6.05172865	      7.27794998	    -12.86420093
      3.80500000	     -9.36771288	     -8.45862219	     10.60291075	     -1.23047672	     -0.06163962	      0.65310891	     39.49393706	      2.55610253	    -17.10986220	    -22.45841654	    -10.00710891	     -3.80924249	      1.48299030	     -7.68741247	     -9.18074220	      2.72050134	    -22.27907874	     10.42967241	     14.72058525	     19.73774837	      6.08400412	      7.72739414	    -12.40173023
      3.81000000	     -9.51581469	     -8.86419180	     10.29276865	     -1.22272108	     -0.06220487	      0.65362465	     39.83130370	      3.09362710	    -16.79211906	    -23.51251316	    -10.08921189	     -4.41951182	      1.30510124	     -7.17800391	     -9.73167410	      2.16731954	    -23.79650392	      9.30342374	     15.44610501	     20.67925247	      6.35736272	      8.25367804	    -11.97817470
      3.81500000	     -9.52541730	     -9.20177705	      9.97139716	     -1.21501152	     -0.06250330	      0.65427007	     39.95517153	      3.65955311	    -16.36993412	    -24.46536854	    -10.02033473	     -5.07093368	      1.15773510	     -6.78432175	    -10.27234235	      1.50024586	    -25.32218753	      7.87794902	     16.13603533	     22.24389103	      6.44755853	      8.71784535	    -11.58078917
      3.82000000	     -9.57294362	     -9.51885359	      9.64997402	     -1.20737644	     -0.06272050	      0.65490520	     40.07630425	      4.18976469	    -16.11044527	    -25.34226836	     -9.91454188	     -5.60874561	      1.23382961	     -6.27943282	    -10.79327314	      0.92819257	    -26.95206298	      6.32431053	     16.84590256	     23.72190497	      6.56218477	      9.15362938	    -11.10558727
      3.82500000	     -9.62619144	     -9.82594205	      9.33861059	     -1.19978134	     -0.06286516	      0.65555751	     40.13343425	      4.72634330	    -15.83661252	    -26.09452413	     -9.68863461	     -6.03948612	      1.51957098	     -5.68344913	    -11.33105330	      0.33249867	    -28.70841762	      4.66856653	     17.59103661	     25.02948411	      6.67923230	      9.56892276	    -10.69508422
      3.83000000	     -9.69014512	    -10.13019910	      9.03759816	     -1.19216978	     -0.06290743	      0.65623746	     40.12156179	      5.28046689	    -15.55170871	    -26.70713635	     -9.36858578	     -6.40792990	      1.91749503	     -5.01183706	    -11.88843898	     -0.22543256	    -30.54097464	      2.89616240	     18.33723185	     26.15840228	      6.81784785	      9.96866156	    -10.34429813
      3.83500000	     -9.72297742	    -10.39926546	      8.75341132	     -1.18474863	     -0.06282377	      0.65695054	     40.03191548	      5.80731675	    -15.33834900	    -27.22837824	     -9.04534327	     -6.76704422	      2.45771570	     -4.28889806	    -12.43112740	     -0.73463953	    -32.45312861	      1.03623398	     18.97765876	     27.31377547	      6.88607051	     10.32587523	     -9.96455718
      3.84000000	     -9.76077234	    -10.65953045	      8.49286025	     -1.17734240	     -0.06263860	      0.65767539	     39.87681291	      6.32871718	    -15.14032029	    -27.63379147	     -8.62931276	     -7.04154823	      3.02828687	     -3.49640029	    -12.97874122	     -1.16426081	    -34.41681897	     -0.86857548	     19.56324725	     28.23060602	      6.96895027	     10.65983197	     -9.64330066
      3.84500000	     -9.78978152	    -10.91031505	      8.25433222	     -1.17003135	     -0.06235336	      0.65840535	     39.65899782	      6.83990657	    -14.97635495	    -27.94601108	     -8.16276767	     -7.24916825	      3.58195425	     -2.63930533	    -13.52546641	     -1.51398050	    -36.43504762	     -2.76486993	     20.04417913	     28.96669635	      7.03654558	     10.97495038	     -9.34871652
      3.85000000	     -9.79853064	    -11.16883777	      8.02040128	     -1.16274885	     -0.06194129	      0.65907880	     39.36337230	      7.35449713	    -14.86641910	    -28.17602861	     -7.60963937	     -7.23009075	      3.95942825	     -1.75181802	    -14.07107947	     -1.77527620	    -38.48862504	     -4.59801270	     20.38752097	     29.32319808	      7.08839340	     11.30720155	     -9.04183684
      3.85500000	     -9.84306659	    -11.42128736	      7.84702448	     -1.15560165	     -0.06150300	      0.65984432	     39.06517625	      7.85639372	    -14.74453121	    -28.30541943	     -7.10548483	     -7.49135645	      4.45863792	     -0.72772347	    -14.62741903	     -1.93607302	    -40.56610097	     -6.37540001	     20.62007372	     29.93662917	      7.18068527	     11.58659174	     -8.85091531
      3.86000000	     -9.79289129	    -11.66278912	      7.65300207	     -1.14854608	     -0.06087394	      0.66048168	     38.61890629	      8.36386532	    -14.62889833	    -28.37462239	     -6.50885851	     -7.42259007	      4.73324915	      0.22347082	    -15.14320667	     -2.05280773	    -42.65940899	     -7.98043504	     20.55525443	     30.08484421	      7.15259067	     11.89932569	     -8.59322506
      3.86500000	     -9.83955874	    -11.93701100	      7.53373604	     -1.14157703	     -0.06025639	      0.66115858	     38.24337775	      8.84744629	    -14.60935543	    -28.35011165	     -6.01295654	     -7.50962156	      5.11350875	      1.38212835	    -15.68912139	     -1.99198690	    -44.75714550	     -9.46162066	     20.55184960	     30.47563291	      7.25521492	     12.19476352	     -8.45253836
      3.87000000	     -9.77193999	    -12.17082741	      7.36278966	     -1.13468809	     -0.05944408	      0.66178090	     37.69751202	      9.35417164	    -14.46839394	    -28.26536073	     -5.44644116	     -7.41174910	      5.32711712	      2.40687232	    -16.16935120	     -1.96747250	    -46.81900638	    -10.70903673	     20.24670525	     30.56496517	      7.20369352	     12.48933549	     -8.23323670
      3.87500000	     -9.74144828	    -12.43597099	      7.23533767	     -1.12785002	     -0.05859533	      0.66236619	     37.15932286	      9.85279310	    -14.41562029	    -28.10528345	     -4.93108895	     -7.31705913	      5.52764191	      3.53607588	    -16.66598331	     -1.83951011	    -48.86432391	    -11.73945339	     19.89143277	     30.68961589	      7.21208059	     12.79678012	     -8.06769838
      3.88000000	     -9.70604808	    -12.69755552	      7.11751714	     -1.12107823	     -0.05766951	      0.66290764	     36.58923777	     10.34189820	    -14.36960070	    -27.89698803	     -4.43638569	     -7.20108774	      5.70966861	      4.68838925	    -17.13209869	     -1.64749110	    -50.86307212	    -12.54559784	     19.43074449	     30.80125212	      7.21551033	     13.10416729	     -7.92780488
      3.88500000	     -9.70716172	    -12.96145635	      7.07973552	     -1.11438573	     -0.05667404	      0.66332762	     36.02371171	     10.76942749	    -14.43872155	    -27.60725566	     -4.00921619	     -7.07926432	      5.93322126	      5.94821404	    -17.56122893	     -1.31320066	    -52.81862240	    -13.13469619	     18.92416383	     30.96173117	      7.27958702	     13.39359100	     -7.86395966
      3.89000000	     -9.62005821	    -13.17014218	      6.92086076	     -1.10763670	     -0.05552483	      0.66383902	     35.31326812	     11.25160389	    -14.30057507	    -27.27326907	     -3.54146873	     -6.88649376	      6.06137580	      7.02084206	    -17.94435179	     -1.16571782	    -54.65639240	    -13.47513867	     18.26217876	     31.00751085	      7.21520718	     13.66268274	     -7.66548782
